<mxfile host="app.diagrams.net" modified="2020-07-13T14:10:36.201Z" agent="5.0 (Windows NT 10.0; Win64; x64) AppleWebKit/537.36 (KHTML, like Gecko) Chrome/83.0.4103.116 Safari/537.36" etag="L2FD-wb56q9lwIcvQlsJ" version="13.4.2" type="github">
  <diagram id="lyDOLNyd8KAHEwL6dvDG" name="Page-1">
    <mxGraphModel dx="1209" dy="627" grid="1" gridSize="10" guides="1" tooltips="1" connect="1" arrows="1" fold="1" page="1" pageScale="1" pageWidth="850" pageHeight="1100" math="0" shadow="0">
      <root>
        <mxCell id="0" />
        <mxCell id="1" parent="0" />
        <mxCell id="5Z-a_fsAluKW9gc8EgUY-1" value="Watson Studio" style="shape=umlLifeline;perimeter=lifelinePerimeter;whiteSpace=wrap;html=1;container=1;collapsible=0;recursiveResize=0;outlineConnect=0;fillColor=#ffe6cc;strokeColor=#d79b00;" parent="1" vertex="1">
          <mxGeometry x="1710" y="30" width="100" height="490" as="geometry" />
        </mxCell>
        <mxCell id="5Z-a_fsAluKW9gc8EgUY-4" value="Install Watson Studio and Watson Knowledge Catalog" style="edgeStyle=orthogonalEdgeStyle;rounded=0;orthogonalLoop=1;jettySize=auto;html=1;" parent="1" source="5Z-a_fsAluKW9gc8EgUY-2" target="5Z-a_fsAluKW9gc8EgUY-3" edge="1">
          <mxGeometry relative="1" as="geometry">
            <mxPoint x="1380" y="180" as="targetPoint" />
            <Array as="points">
              <mxPoint x="1240" y="130" />
              <mxPoint x="1240" y="130" />
            </Array>
          </mxGeometry>
        </mxCell>
        <mxCell id="5Z-a_fsAluKW9gc8EgUY-9" value="Enable data refinery service" style="edgeStyle=orthogonalEdgeStyle;rounded=0;orthogonalLoop=1;jettySize=auto;html=1;" parent="1" source="5Z-a_fsAluKW9gc8EgUY-2" target="5Z-a_fsAluKW9gc8EgUY-3" edge="1">
          <mxGeometry relative="1" as="geometry">
            <Array as="points">
              <mxPoint x="920" y="120" />
              <mxPoint x="920" y="120" />
            </Array>
          </mxGeometry>
        </mxCell>
        <mxCell id="5Z-a_fsAluKW9gc8EgUY-2" value="&lt;font style=&quot;font-size: 11px&quot;&gt;Cluster administrator&lt;/font&gt;" style="shape=umlActor;verticalLabelPosition=bottom;verticalAlign=top;html=1;outlineConnect=0;" parent="1" vertex="1">
          <mxGeometry x="749" y="90" width="30" height="60" as="geometry" />
        </mxCell>
        <mxCell id="5Z-a_fsAluKW9gc8EgUY-3" value="CP4D cluster" style="shape=umlLifeline;perimeter=lifelinePerimeter;whiteSpace=wrap;html=1;container=1;collapsible=0;recursiveResize=0;outlineConnect=0;fillColor=#ffe6cc;strokeColor=#d79b00;" parent="1" vertex="1">
          <mxGeometry x="1450" y="30" width="100" height="480" as="geometry" />
        </mxCell>
        <mxCell id="5Z-a_fsAluKW9gc8EgUY-7" value="&lt;ol&gt;&lt;li&gt;&lt;font style=&quot;font-size: 11px&quot;&gt;create a data refinery flow in the project&lt;/font&gt;&lt;/li&gt;&lt;li&gt;&lt;font style=&quot;font-size: 11px&quot;&gt;add a data asset (Relational tables,&amp;nbsp;&lt;span style=&quot;color: rgb(50 , 50 , 50)&quot;&gt;Avro, CSV, JSON, Parquet, and text files), specify format details&lt;/span&gt;&lt;/font&gt;&lt;/li&gt;&lt;li&gt;&lt;font style=&quot;font-size: 11px&quot;&gt;apply operations to cleanse, shape, and enrich your data in graphical flow editor&lt;/font&gt;&lt;/li&gt;&lt;li&gt;&lt;font style=&quot;font-size: 11px&quot;&gt;validate frequency and statistics for each column (profile)&lt;/font&gt;&lt;/li&gt;&lt;li&gt;&lt;font style=&quot;font-size: 11px&quot;&gt;visualize your data using charts&lt;/font&gt;&lt;/li&gt;&lt;li&gt;&lt;font style=&quot;font-size: 11px&quot;&gt;define the output file or db table&lt;/font&gt;&lt;/li&gt;&lt;li&gt;&lt;font style=&quot;font-size: 11px&quot;&gt;save your data refinery flow&lt;/font&gt;&lt;/li&gt;&lt;/ol&gt;" style="edgeStyle=orthogonalEdgeStyle;rounded=0;orthogonalLoop=1;jettySize=auto;html=1;align=left;exitX=0.5;exitY=0.5;exitDx=0;exitDy=0;exitPerimeter=0;" parent="1" source="5Z-a_fsAluKW9gc8EgUY-6" target="5Z-a_fsAluKW9gc8EgUY-1" edge="1">
          <mxGeometry x="-0.8503" relative="1" as="geometry">
            <mxPoint x="1030" y="279" as="sourcePoint" />
            <mxPoint x="1659.5" y="279" as="targetPoint" />
            <Array as="points" />
            <mxPoint as="offset" />
          </mxGeometry>
        </mxCell>
        <mxCell id="5Z-a_fsAluKW9gc8EgUY-6" value="&lt;font style=&quot;font-size: 10px&quot;&gt;User&lt;/font&gt;" style="shape=umlActor;verticalLabelPosition=bottom;verticalAlign=top;html=1;outlineConnect=0;" parent="1" vertex="1">
          <mxGeometry x="749" y="265" width="30" height="60" as="geometry" />
        </mxCell>
        <mxCell id="5Z-a_fsAluKW9gc8EgUY-11" value="&lt;ol&gt;&lt;li&gt;create an analytics project, enable git integration (optional)&lt;/li&gt;&lt;li&gt;create connections&lt;/li&gt;&lt;li&gt;add data assets from the connections&lt;/li&gt;&lt;/ol&gt;" style="edgeStyle=orthogonalEdgeStyle;rounded=0;orthogonalLoop=1;jettySize=auto;html=1;align=left;" parent="1" source="5Z-a_fsAluKW9gc8EgUY-10" target="5Z-a_fsAluKW9gc8EgUY-1" edge="1">
          <mxGeometry x="-0.8729" relative="1" as="geometry">
            <Array as="points">
              <mxPoint x="820" y="210" />
              <mxPoint x="820" y="210" />
            </Array>
            <mxPoint as="offset" />
          </mxGeometry>
        </mxCell>
        <mxCell id="5Z-a_fsAluKW9gc8EgUY-10" value="&lt;font style=&quot;font-size: 11px&quot;&gt;Administrator&lt;/font&gt;" style="shape=umlActor;verticalLabelPosition=bottom;verticalAlign=top;html=1;outlineConnect=0;" parent="1" vertex="1">
          <mxGeometry x="749" y="180" width="30" height="60" as="geometry" />
        </mxCell>
        <mxCell id="5Z-a_fsAluKW9gc8EgUY-13" value="run or schedule the data refinery flow" style="edgeStyle=orthogonalEdgeStyle;rounded=0;orthogonalLoop=1;jettySize=auto;html=1;" parent="1" source="5Z-a_fsAluKW9gc8EgUY-12" target="5Z-a_fsAluKW9gc8EgUY-1" edge="1">
          <mxGeometry relative="1" as="geometry">
            <Array as="points">
              <mxPoint x="1350" y="370" />
              <mxPoint x="1350" y="370" />
            </Array>
          </mxGeometry>
        </mxCell>
        <mxCell id="5Z-a_fsAluKW9gc8EgUY-14" style="edgeStyle=orthogonalEdgeStyle;rounded=0;orthogonalLoop=1;jettySize=auto;html=1;entryX=0.131;entryY=0.461;entryDx=0;entryDy=0;entryPerimeter=0;" parent="1" source="5Z-a_fsAluKW9gc8EgUY-12" target="5Z-a_fsAluKW9gc8EgUY-15" edge="1">
          <mxGeometry relative="1" as="geometry">
            <mxPoint x="919" y="449.9999999999999" as="targetPoint" />
            <Array as="points">
              <mxPoint x="799" y="390" />
              <mxPoint x="799" y="470" />
            </Array>
          </mxGeometry>
        </mxCell>
        <mxCell id="5Z-a_fsAluKW9gc8EgUY-12" value="&lt;font style=&quot;font-size: 11px&quot;&gt;User&lt;/font&gt;" style="shape=umlActor;verticalLabelPosition=bottom;verticalAlign=top;html=1;outlineConnect=0;" parent="1" vertex="1">
          <mxGeometry x="749" y="360" width="30" height="60" as="geometry" />
        </mxCell>
        <mxCell id="5Z-a_fsAluKW9gc8EgUY-16" value="Watson Data API requests" style="edgeStyle=orthogonalEdgeStyle;rounded=0;orthogonalLoop=1;jettySize=auto;html=1;startArrow=classic;startFill=1;" parent="1" source="5Z-a_fsAluKW9gc8EgUY-15" target="5Z-a_fsAluKW9gc8EgUY-1" edge="1">
          <mxGeometry relative="1" as="geometry">
            <Array as="points">
              <mxPoint x="1190" y="472" />
              <mxPoint x="1190" y="472" />
            </Array>
          </mxGeometry>
        </mxCell>
        <mxCell id="5Z-a_fsAluKW9gc8EgUY-15" value="&lt;font style=&quot;font-size: 11px&quot;&gt;create notebooks&lt;/font&gt;" style="shape=step;perimeter=stepPerimeter;whiteSpace=wrap;html=1;fixedSize=1;" parent="1" vertex="1">
          <mxGeometry x="964" y="442" width="125" height="60" as="geometry" />
        </mxCell>
        <mxCell id="5Z-a_fsAluKW9gc8EgUY-26" value="access virtual tables" style="edgeStyle=orthogonalEdgeStyle;rounded=0;orthogonalLoop=1;jettySize=auto;html=1;startArrow=none;startFill=0;" parent="1" source="5Z-a_fsAluKW9gc8EgUY-22" edge="1">
          <mxGeometry relative="1" as="geometry">
            <mxPoint x="1760" y="180" as="targetPoint" />
            <Array as="points">
              <mxPoint x="1761" y="180" />
            </Array>
          </mxGeometry>
        </mxCell>
        <mxCell id="5Z-a_fsAluKW9gc8EgUY-22" value="Data Virtualization Layer" style="shape=umlLifeline;perimeter=lifelinePerimeter;whiteSpace=wrap;html=1;container=1;collapsible=0;recursiveResize=0;outlineConnect=0;fillColor=#ffe6cc;strokeColor=#d79b00;fontSize=11;" parent="1" vertex="1">
          <mxGeometry x="1570" y="30" width="100" height="480" as="geometry" />
        </mxCell>
        <mxCell id="5Z-a_fsAluKW9gc8EgUY-23" value="source systems" style="shape=umlLifeline;perimeter=lifelinePerimeter;whiteSpace=wrap;html=1;container=1;collapsible=0;recursiveResize=0;outlineConnect=0;fillColor=#dae8fc;strokeColor=#6c8ebf;fontSize=11;" parent="1" vertex="1">
          <mxGeometry x="1330" y="30" width="100" height="490" as="geometry" />
        </mxCell>
        <mxCell id="5Z-a_fsAluKW9gc8EgUY-24" value="access source systems &lt;br&gt;through connections" style="edgeStyle=orthogonalEdgeStyle;rounded=0;orthogonalLoop=1;jettySize=auto;html=1;strokeWidth=1;fontSize=11;" parent="1" source="5Z-a_fsAluKW9gc8EgUY-23" edge="1">
          <mxGeometry x="0.0021" relative="1" as="geometry">
            <Array as="points">
              <mxPoint x="1460" y="170" />
              <mxPoint x="1460" y="170" />
            </Array>
            <mxPoint x="1380" y="170" as="sourcePoint" />
            <mxPoint x="1620" y="170" as="targetPoint" />
            <mxPoint as="offset" />
          </mxGeometry>
        </mxCell>
      </root>
    </mxGraphModel>
  </diagram>
</mxfile>
